<svg xmlns="http://www.w3.org/2000/svg" width="15" height="14" viewBox="0 0 15 14"><defs><clipPath id="zbf3a"><path fill="#fff" d="M7.424.268a.39.39 0 0 1 .374-.269.39.39 0 0 1 .374.269l1.516 4.38a.39.39 0 0 0 .363.269l4.556.119c.17.004.313.11.366.276a.396.396 0 0 1-.134.441l-3.622 2.835a.395.395 0 0 0-.138.43l1.298 4.462a.397.397 0 0 1-.149.438.385.385 0 0 1-.457.005L8.024 11.29a.385.385 0 0 0-.452 0l-3.747 2.633a.385.385 0 0 1-.457-.005.397.397 0 0 1-.148-.438l1.297-4.462a.395.395 0 0 0-.137-.43L.757 5.753a.396.396 0 0 1-.134-.441.389.389 0 0 1 .366-.276l4.556-.12a.39.39 0 0 0 .363-.267z"/></clipPath><clipPath id="zbf3b"><path fill="#fff" d="M7.424.268a.39.39 0 0 1 .374-.269.39.39 0 0 1 .374.269l1.516 4.38a.39.39 0 0 0 .363.269l4.556.119c.17.004.313.11.366.276a.396.396 0 0 1-.134.441l-3.622 2.835a.395.395 0 0 0-.138.43l1.298 4.462a.397.397 0 0 1-.149.438.385.385 0 0 1-.457.005L8.024 11.29a.385.385 0 0 0-.452 0l-3.747 2.633a.385.385 0 0 1-.457-.005.397.397 0 0 1-.148-.438l1.297-4.462a.395.395 0 0 0-.137-.43L.757 5.753a.396.396 0 0 1-.134-.441.389.389 0 0 1 .366-.276l4.556-.12a.39.39 0 0 0 .363-.267z"/></clipPath></defs><g><g><path fill="none" stroke="#fa9d4c" stroke-linecap="round" stroke-linejoin="round" stroke-miterlimit="20" stroke-width="2" d="M7.424.268a.39.39 0 0 1 .374-.269.39.39 0 0 1 .374.269l1.516 4.38a.39.39 0 0 0 .363.269l4.556.119c.17.004.313.11.366.276a.396.396 0 0 1-.134.441l-3.622 2.835a.395.395 0 0 0-.138.43l1.298 4.462a.397.397 0 0 1-.149.438.385.385 0 0 1-.457.005L8.024 11.29a.385.385 0 0 0-.452 0l-3.747 2.633a.385.385 0 0 1-.457-.005.397.397 0 0 1-.148-.438l1.297-4.462a.395.395 0 0 0-.137-.43L.757 5.753a.396.396 0 0 1-.134-.441.389.389 0 0 1 .366-.276l4.556-.12a.39.39 0 0 0 .363-.267z" clip-path="url(&quot;#zbf3a&quot;)"/><path fill="none" stroke="#fa9d4c" stroke-miterlimit="20" stroke-width="2" d="M7.424.268a.39.39 0 0 1 .374-.269.39.39 0 0 1 .374.269l1.516 4.38a.39.39 0 0 0 .363.269l4.556.119c.17.004.313.11.366.276a.396.396 0 0 1-.134.441l-3.622 2.835a.395.395 0 0 0-.138.43l1.298 4.462a.397.397 0 0 1-.149.438.385.385 0 0 1-.457.005L8.024 11.29a.385.385 0 0 0-.452 0l-3.747 2.633a.385.385 0 0 1-.457-.005.397.397 0 0 1-.148-.438l1.297-4.462a.395.395 0 0 0-.137-.43L.757 5.753a.396.396 0 0 1-.134-.441.389.389 0 0 1 .366-.276l4.556-.12a.39.39 0 0 0 .363-.267z" clip-path="url(&quot;#zbf3b&quot;)"/></g></g></svg>