<svg xmlns="http://www.w3.org/2000/svg" width="15" height="14" viewBox="0 0 15 14"><defs><clipPath id="9jw9a"><path fill="#fff" d="M6.824.268a.39.39 0 0 1 .374-.269.39.39 0 0 1 .374.269l1.516 4.38a.39.39 0 0 0 .363.269l4.556.119c.17.004.313.11.366.276a.396.396 0 0 1-.134.441l-3.623 2.835a.395.395 0 0 0-.137.43l1.297 4.462a.397.397 0 0 1-.147.438.385.385 0 0 1-.458.005L7.424 11.29a.384.384 0 0 0-.452 0l-3.747 2.633a.385.385 0 0 1-.457-.005.397.397 0 0 1-.148-.438l1.297-4.462a.395.395 0 0 0-.137-.43L.158 5.753a.396.396 0 0 1-.135-.441.388.388 0 0 1 .366-.276l4.556-.12a.39.39 0 0 0 .363-.267z"/></clipPath></defs><g><g><path fill="#fa9d4c" d="M6.824.268a.39.39 0 0 1 .374-.269.39.39 0 0 1 .374.269l1.516 4.38a.39.39 0 0 0 .363.269l4.556.119c.17.004.313.11.366.276a.396.396 0 0 1-.134.441l-3.623 2.835a.395.395 0 0 0-.137.43l1.297 4.462a.397.397 0 0 1-.147.438.385.385 0 0 1-.458.005L7.424 11.29a.384.384 0 0 0-.452 0l-3.747 2.633a.385.385 0 0 1-.457-.005.397.397 0 0 1-.148-.438l1.297-4.462a.395.395 0 0 0-.137-.43L.158 5.753a.396.396 0 0 1-.135-.441.388.388 0 0 1 .366-.276l4.556-.12a.39.39 0 0 0 .363-.267z"/><path fill="none" stroke="#fa9d4c" stroke-linecap="round" stroke-linejoin="round" stroke-miterlimit="20" stroke-width="2" d="M6.824.268a.39.39 0 0 1 .374-.269.39.39 0 0 1 .374.269l1.516 4.38a.39.39 0 0 0 .363.269l4.556.119c.17.004.313.11.366.276a.396.396 0 0 1-.134.441l-3.623 2.835a.395.395 0 0 0-.137.43l1.297 4.462a.397.397 0 0 1-.147.438.385.385 0 0 1-.458.005L7.424 11.29a.384.384 0 0 0-.452 0l-3.747 2.633a.385.385 0 0 1-.457-.005.397.397 0 0 1-.148-.438l1.297-4.462a.395.395 0 0 0-.137-.43L.158 5.753a.396.396 0 0 1-.135-.441.388.388 0 0 1 .366-.276l4.556-.12a.39.39 0 0 0 .363-.267z" clip-path="url(&quot;#9jw9a&quot;)"/></g></g></svg>